<svg xmlns="http://www.w3.org/2000/svg" version="1.1" xmlns:xlink="http://www.w3.org/1999/xlink" xmlns:svgjs="http://svgjs.dev/svgjs" viewBox="0 0 800 400"><path d="M10.3139009475708,18.834081649780273C24.953661667505898,34.21823653539022,42.63378046353658,26.550073299407963,63.22869873046875,74.43946075439453C83.82361699740092,122.3288482093811,57.955156656901046,136.09865618387857,84.75336456298828,191.92825317382812C111.55157246907552,247.75785016377768,103.01943397521973,236.53214294433593,160.08969116210938,276.2331848144531C217.15994834899902,315.9342266845703,232.72049153645833,306.8908694458008,291.0314025878906,335.4259948730469C349.3423136393229,363.961120300293,308.3228797403971,385.82360514322914,370.8520202636719,379.3721923828125C433.3811607869466,372.92077962239586,467.1659005737305,360.7414147440592,517.0403442382812,312.1076354980469C566.914787902832,263.4738562520345,543.42900390625,252.22123158772786,551.12109375,203.5874481201172C558.81318359375,154.95366465250652,525.2406947835286,168.0837141164144,544.8430786132812,136.3228759765625C564.4454624430339,104.56203783671062,574.3318400065104,95.2406591796875,621.9730834960938,88.78923797607422C669.614326985677,82.33781677246094,668.6546978759766,112.0119608815511,717.0403442382812,113.00448608398438C765.4259906005859,113.99701128641765,774.7772576904297,98.08370524088542,796.8609619140625,92.37667846679688" fill="none" stroke-width="5" stroke="url(&quot;#SvgjsLinearGradient1005&quot;)" stroke-linecap="round" stroke-dasharray="0 24"></path><defs><linearGradient id="SvgjsLinearGradient1005" gradientTransform="rotate(221, 0.5, 0.5)"><stop stop-color="hsl(162, 100%, 58%)" offset="0"></stop><stop stop-color="hsl(270, 73%, 53%)" offset="1"></stop></linearGradient></defs></svg>