<svg xmlns="http://www.w3.org/2000/svg" version="1.1" xmlns:xlink="http://www.w3.org/1999/xlink" xmlns:svgjs="http://svgjs.dev/svgjs" viewBox="0 0 800 400"><path d="M35.855915659402626 380.5960238829805C45.1832702181089 377.56462922966017 46.77968399259926 369.86955415641796 71.73035626981141 368.93681367790236C96.68102854702356 368.00407319938677 103.13842481229187 370.0130386534883 131.82003980252625 377.00856050407424C160.50165479276063 384.00408235466017 150.56443753812195 393.9771939269258 182.04426007840516 395.84266694938674C213.52408261868837 397.7081399718477 221.18327466580752 393.27763276969927 252.89628034207703 384.1834567443086C284.60928601834655 375.08928071891796 272.0711720046747 370.42560518180863 304.017358833288 360.8650668517305C335.96354566190126 351.30452852165234 340.55547101590514 341.34937410270703 375.76622968289735 347.41215547477736C410.97698834988955 353.4749368468477 398.16981366727236 369.4928695861055 439.44335370633485 384.1834567443086C480.71689374539733 398.87404390251174 494.8693504104365 409.5108249083711 534.5106144485223 403.9144137755586C574.1518784866083 398.31800264274614 565.3267930373895 380.84714265739456 591.9097538528192 362.6587985411836C618.4927146682489 344.4704544249727 610.1698185500849 338.6229226866914 636.7527714309442 333.95924409782424C663.3357243118036 329.29556550895705 668.7348331985223 332.82919954216015 694.151880317663 344.72157319938674C719.5689274368036 356.6139468566133 708.1608732375848 366.6408474913789 734.5106449661005 379.69914277946486C760.8604166946161 392.7574380675508 769.1473844680536 401.70811067497266 795.4971561965692 394.9457858458711C821.8469279250849 388.18346101676957 825.3626420364129 364.41665315544145 835.8559208450067 353.69020112907424 " fill="none" stroke-width="1" stroke="url(&quot;#SvgjsLinearGradient1008&quot;)" stroke-linecap="round" stroke-dasharray="19 23" transform="matrix(-0.8927079897466129,0.3249191361593853,-0.3249191361593853,-0.8927079897466129,960.4598604730039,540.6534829481012)"></path><defs><linearGradient id="SvgjsLinearGradient1008"><stop stop-color="hsl(30, 100%, 50%)" offset="0"></stop><stop stop-color="hsl(30, 100%, 70%)" offset="1"></stop></linearGradient></defs></svg>