<svg xmlns="http://www.w3.org/2000/svg" version="1.1" xmlns:xlink="http://www.w3.org/1999/xlink" viewBox="0 0 700 700" style="overflow: hidden; display: block;" width="700" height="700"><defs><linearGradient id="two-53" x1="350" y1="-350" x2="350" y2="350" spreadMethod="pad" gradientUnits="userSpaceOnUse"><stop offset="0%" stop-color="hsl(185, 53%, 55%)" stop-opacity="1"></stop><stop offset="100%" stop-color="hsl(0, 73%, 55%)" stop-opacity="1"></stop></linearGradient></defs><g id="two-0" transform="matrix(1 0 0 1 0 0)" opacity="1"><path transform="matrix(1 0 0 1 350 350)" id="two-415" d="M 323.495669 94.986898 C 281.105239 146.709172 181.996743 49.508236 121.550462 78.115739 C 109.007776 84.051834 100.812503 99.22006 97.690405 112.740737 C 86.355373 161.828655 162.985946 236.73972 120.42928 263.703341 C 89.777537 283.124083 65.25128 199.229685 29.108596 202.454733 C -1.815345 205.214107 -8.279041 260.808756 -38.513242 267.865478 C -63.186929 273.624364 -86.647956 248.670282 -111.627471 244.430064 C -143.507956 239.018422 -191.674106 268.796343 -209.583572 241.872334 C -237.599597 199.754733 -140.650392 147.77843 -154.047414 99.000261 C -159.592264 78.811619 -186.452306 71.304244 -204.012101 59.903357 C -239.392009 36.932568 -315.517235 42.159085 -316.933771 0 C -318.261972 -39.530044 -247.808119 -40.96397 -215.062889 -63.148162 C -196.603574 -75.653953 -172.7849 -84.53804 -160.707359 -103.280349 C -148.652283 -121.987799 -152.030036 -147.644028 -146.645597 -169.23804 C -138.891656 -200.334817 -151.399242 -256.543527 -119.929533 -262.609046 C -66.579011 -272.891906 -73.301946 -129.547003 -19.049302 -132.4908 C 12.248692 -134.189057 9.881203 -189.965999 30.683949 -213.411558 C 59.944218 -246.389095 98.251013 -320.20562 135.368108 -296.414811 C 191.20368 -260.626086 39.785408 -147.063082 87.676092 -101.183605 C 119.245315 -70.940156 180.973481 -165.678023 214.904894 -138.11099 C 234.614748 -122.098034 198.223417 -84.354994 209.043647 -61.380753 C 224.018412 -29.585322 275.691412 -28.628813 296.077293 -0.000001 C 315.001529 26.576158 344.17642 69.75348 323.495669 94.986898 Z " fill="hsl(36, 69%, 72%)" stroke="undefined" stroke-width="1" stroke-opacity="1" fill-opacity="1" visibility="visible" stroke-linecap="butt" stroke-linejoin="miter" stroke-miterlimit="4"></path></g></svg>